<svg t="1754558690413" class="icon" viewBox="0 0 1024 1024" version="1.1" xmlns="http://www.w3.org/2000/svg" p-id="2120" width="128" height="128"><path d="M512 58.31111111c263.91893333 0 477.86666667 213.94773333 477.86666667 477.86666666s-213.94773333 477.86666667-477.86666667 477.86666667S34.13333333 800.09671111 34.13333333 536.17777777 248.08106667 58.31111111 512 58.31111111z m0 91.02222186C298.34808853 149.33333297 125.1555552 322.52586631 125.1555552 536.17777777s173.19253333 386.8444448 386.8444448 386.8444448 386.8444448-173.19253333 386.8444448-386.8444448S725.65191147 149.33333297 512 149.33333297z m22.7555552 295.82222294a22.7555552 22.7555552 0 0 1 22.75555627 22.7555552v318.57777813a22.7555552 22.7555552 0 0 1-22.75555627 22.7555552h-45.5111104a22.7555552 22.7555552 0 0 1-22.75555627-22.7555552V467.91111111a22.7555552 22.7555552 0 0 1 22.75555627-22.7555552h45.5111104z m0-182.0444448a22.7555552 22.7555552 0 0 1 22.75555627 22.7555552v45.51111146a22.7555552 22.7555552 0 0 1-22.75555627 22.7555552h-45.5111104a22.7555552 22.7555552 0 0 1-22.75555627-22.7555552v-45.51111146a22.7555552 22.7555552 0 0 1 22.75555627-22.7555552h45.5111104z" p-id="2121"></path></svg>