<svg t="1753973425951" class="icon" viewBox="0 0 1024 1024" version="1.1" xmlns="http://www.w3.org/2000/svg" p-id="1942" width="64" height="64"><path d="M477.86666667 268.17777777a8.53333333 8.53333333 0 0 0-8.53333334 8.53333334v275.0784c0 4.5024 1.7792 8.82346667 4.95146667 12.02026666L677.83466667 768.97031111a8.53333333 8.53333333 0 0 0 12.06826666 0.048l48.4608-48.08106668a8.53333333 8.53333333 0 0 0 0.048-12.06826666L554.66666667 523.67004444V276.71111111a8.53333333 8.53333333 0 0 0-8.53333334-8.53333334h-68.26666666z" fill="#1296db" p-id="1943"></path><path d="M990.93333333 540.71111111C990.93333333 804.92444444 776.74666667 1019.11111111 512.53333333 1019.11111111S34.13333333 804.92444444 34.13333333 540.71111111 248.32 62.31111111 512.53333333 62.31111111 990.93333333 276.49777777 990.93333333 540.71111111z m-85.33333333 0C905.6 323.62631111 729.61813333 147.64444444 512.53333333 147.64444444S119.46666667 323.62631111 119.46666667 540.71111111 295.44853333 933.77777777 512.53333333 933.77777777 905.6 757.79591111 905.6 540.71111111z" fill="#1296db" p-id="1944"></path></svg>