<svg t="1754405297246" class="icon" viewBox="0 0 1024 1024" version="1.1" xmlns="http://www.w3.org/2000/svg" p-id="2103" width="64" height="64"><path d="M480 307.41666666a8 8 0 0 0-8 8v257.886c0 4.221 1.668 8.272 4.642 11.269L667.47 776.90966666a8 8 0 0 0 11.314 0.045l45.432-45.07600001a8 8 0 0 0 0.045-11.31399999L552 546.94066666V315.41666666a8 8 0 0 0-8-8h-64z" fill="#2a75ec" p-id="2104"></path><path d="M961 562.91666666C961 810.61666666 760.2 1011.41666666 512.5 1011.41666666S64 810.61666666 64 562.91666666 264.8 114.41666666 512.5 114.41666666 961 315.21666666 961 562.91666666z m-80 0C881 359.39966666 716.017 194.41666666 512.5 194.41666666S144 359.39966666 144 562.91666666 308.983 931.41666666 512.5 931.41666666 881 766.43366666 881 562.91666666z" fill="#2a75ec" p-id="2105"></path></svg>