<svg t="1754034653710" class="icon" viewBox="0 0 1024 1024" version="1.1" xmlns="http://www.w3.org/2000/svg" p-id="2012" width="128" height="128"><path d="M480 243.41666667a8 8 0 0 0-8 8v257.886c0 4.221 1.668 8.272 4.642 11.269L667.47 712.90966667a8 8 0 0 0 11.314 0.045l45.432-45.07600001a8 8 0 0 0 0.045-11.31399999L552 482.94066667V251.41666667a8 8 0 0 0-8-8h-64z" fill="#2a75ec" p-id="2013"></path><path d="M961 498.91666667C961 746.61666667 760.2 947.41666667 512.5 947.41666667S64 746.61666667 64 498.91666667 264.8 50.41666667 512.5 50.41666667 961 251.21666667 961 498.91666667z m-80 0C881 295.39966667 716.017 130.41666667 512.5 130.41666667S144 295.39966667 144 498.91666667 308.983 867.41666667 512.5 867.41666667 881 702.43366667 881 498.91666667z" fill="#2a75ec" p-id="2014"></path></svg>