<svg t="1754558375614" class="icon" viewBox="0 0 1024 1024" version="1.1" xmlns="http://www.w3.org/2000/svg" p-id="4154" width="128" height="128"><path d="M511.36426667 65.29813332c-263.35146667 0-477.5904 214.23893333-477.5904 477.5904s214.23893333 477.5904 477.5904 477.5904S988.95573333 806.23999999 988.95573333 542.88853332 774.71573333 65.29813332 511.36426667 65.29813332z m0 875.58293334c-219.4528 0-397.99253333-178.53973333-397.99253334-397.99253334S291.91146667 144.89599999 511.36426667 144.89599999s397.99253333 178.53973333 397.99253333 397.99253333-178.53973333 397.99253333-397.99253333 397.99253334z" p-id="4155"></path><path d="M696.35093333 670.6048L531.264 575.12639999V314.76053333c0-21.96906667-17.8304-39.79946667-39.79946667-39.79946666-21.96906667 0-39.79946667 17.8304-39.79946666 39.79946666V593.35466667c0 14.76586667 18.34773333 27.14346667 30.28693333 33.98826665 3.30346667 4.97493333 12.3776 9.472 17.90933333 12.65600001l164.17173334 99.4976c19.024 10.98453333 39.64053333 4.4576 50.62506666-14.5664 10.9856-19.02293333 0.75733333-43.3408-18.3072-54.32533333z" p-id="4156"></path></svg>