<svg t="1756043983427" class="icon" viewBox="0 0 1024 1024" version="1.1" xmlns="http://www.w3.org/2000/svg" p-id="3970" width="64" height="64"><path d="M889.26933333 513.5296c-14.41792 0-26.2144 11.79648-26.2144 26.2144v251.22133333c0 45.8752-37.13706667 83.01226667-83.01226666 83.01226667H222.112c-45.8752 0-83.01226667-37.13706667-83.01226667-83.01226667V233.03466667c0-45.8752 37.13706667-83.01226667 83.01226667-83.01226667h251.22133333c14.41792 0 26.2144-11.79648 26.2144-26.2144s-11.79648-26.2144-26.2144-26.2144h-251.22133333c-74.71104 0-135.44106667 60.73002667-135.44106667 135.44106667v557.9296c0 74.71104 60.73002667 135.44106667 135.44106667 135.44106666h557.9296c74.71104 0 135.44106667-60.73002667 135.44106667-135.44106666v-251.22133334c0-14.41792-11.57802667-26.2144-26.2144-26.2144Z" p-id="3971"></path><path d="M690.03946667 188.25173333L334.61546667 543.67573333l-10.92266667 10.92266667c-3.93216 4.15061333-7.20896 9.17504-8.95658667 14.41792l-39.54005333 118.61973333a37.33365333 37.33365333 0 0 0 42.5984 48.27818667l132.8192-26.65130667c7.20896-1.52917333 13.76256-5.02442667 19.00544-10.04885333l10.48576-10.48576 413.53173333-413.53173333c7.64586667-7.64586667 11.57802667-18.35008 10.70421334-29.05429334a137.18826667 137.18826667 0 0 0-126.9216-126.9216c-10.92266667-0.87381333-21.40842667 3.05834667-29.05429334 10.70421334l-58.32704 58.32704ZM461.3184 633.2416l-70.99733333-70.99733333L708.608 243.95733333l70.99733333 70.99733334-318.28693333 318.28693333Zm-103.10997333-28.83584l58.32704 58.32704-83.44917334 16.60245333 25.12213334-74.92949333ZM780.04266667 172.30506667c36.70016 5.67978667 65.31754667 34.29717333 70.99733333 70.99733333l-34.51562667 34.51562667-70.99733333-70.99733334 34.51562667-34.51562666Z" p-id="3972"></path></svg>