<svg t="1754751491404" class="icon" viewBox="0 0 1024 1024" version="1.1" xmlns="http://www.w3.org/2000/svg" p-id="3688" width="64" height="64"><path d="M812.9375 152c0-49.6875-40.3125-90-90-90h-15c-49.6875 0-90 40.3125-90 90H407c0-49.6875-40.3125-90-90-90h-15c-49.6875 0-90 40.3125-90 90H92c-33.09375001 0-60 26.90625001-60 60v690c0 33.09375001 26.90625001 60 60 60h840c33.09375001 0 60-26.90625001 60-60V212c0-33.09375001-26.90625001-60-60-60H812.9375zM715.4375 122c20.71875001 0 37.5 16.78125001 37.5 37.5v75c0 20.71875001-16.78125001 37.5-37.5 37.5s-37.5-16.78125001-37.5-37.5v-75c0-20.71875001 16.78125001-37.5 37.5-37.5z m-405.9375 0c20.71875001 0 37.5 16.78125001 37.5 37.5v75c0 20.71875001-16.78125001 37.5-37.5 37.5s-37.5-16.78125001-37.5-37.5v-75c0-20.71875001 16.78125001-37.5 37.5-37.5z m592.5 780H122c-16.59375001 0-30-13.40625001-30-30V452h840v420c0 16.59375001-13.40625001 30-30 30z m30-510H92V242c0-16.59375001 13.40625001-30 30-30h90v30c0 49.6875 40.3125 90 90 90h15c49.6875 0 90-40.3125 90-90v-30h210.9375v22.5c0 53.8125 43.6875 97.5 97.5 97.5s97.5-43.6875 97.5-97.5v-22.5h89.0625c16.59375001 0 30 13.40625001 30 30v150z" p-id="3689"></path></svg>