<svg t="1756044486922" class="icon" viewBox="0 0 1024 1024" version="1.1" xmlns="http://www.w3.org/2000/svg" p-id="2330" width="64" height="64"><path d="M512 962a450 450 0 1 1 450-450 450 450 0 0 1-450 450z m0-839.99999971a389.99999971 389.99999971 0 1 0 389.99999971 389.99999971A389.99999971 389.99999971 0 0 0 512 122.00000029z" p-id="2331"></path><path d="M347.00000029 406.99999971m-45 0a45 45 0 1 0 90 0 45 45 0 1 0-90 0Z" p-id="2332"></path><path d="M676.99999971 406.99999971m-45 0a45 45 0 1 0 90 0 45 45 0 1 0-90 0Z" p-id="2333"></path><path d="M512 752.00000029a240.00000029 240.00000029 0 0 1-222.3-138.00000058 29.99999971 29.99999971 0 0 1 54.9-23.99999942A180 180 0 0 0 512 692a180 180 0 0 0 167.4-101.99999971 29.99999971 29.99999971 0 0 1 54.9 23.99999942A240.00000029 240.00000029 0 0 1 512 752.00000029z" p-id="2334"></path></svg>