<svg t="1754405182438" class="icon" viewBox="0 0 1024 1024" version="1.1" xmlns="http://www.w3.org/2000/svg" p-id="2103" width="64" height="64"><path d="M627.2 850.66666666h68.26666667a4.26666667 4.26666667 0 0 0 4.26666666-4.26666668V641.59999999a4.26666667 4.26666667 0 0 0-4.26666666-4.26666667h-68.26666667a4.26666667 4.26666667 0 0 0-4.26666667 4.26666667v204.79999999a4.26666667 4.26666667 0 0 0 4.26666667 4.26666668z m343.36-275.41333333L853.33333333 457.91999999V257.59999998a4.26666667 4.26666667 0 0 0-4.26666666-4.26666666H738.13333333a4.26666667 4.26666667 0 0 0-4.26666666 4.26666667v80.85333333L542.18666667 146.77333332a42.77333333 42.77333333 0 0 0-60.37333334 0l-24.10666666 24.21333334-404.26666667 404.26666667a4.16 4.16 0 0 0 0 5.97333332l48.21333333 48.32a4.48 4.48 0 0 0 6.08 0l62.93333334-62.93333332v394.56a42.66666667 42.66666667 0 0 0 42.66666666 42.66666665h597.33333334a42.66666667 42.66666667 0 0 0 42.66666666-42.66666665V566.61333333l62.93333334 62.93333332a4.48 4.48 0 0 0 6.08 0l48.21333333-48.32a4.16 4.16 0 0 0 0-5.97333332zM776.53333333 927.03999998H247.46666667V489.81333333l264.53333333-264.53333335 264.53333333 264.53333335z" fill="#2a75ec" p-id="2104"></path></svg>