<svg t="1754559149258" class="icon" viewBox="0 0 1024 1024" version="1.1" xmlns="http://www.w3.org/2000/svg" p-id="2120" width="128" height="128"><path d="M634.88 830.57777778h72.81777778a4.55111111 4.55111111 0 0 0 4.55111111-4.55111113V607.57333333a4.55111111 4.55111111 0 0 0-4.55111111-4.55111112h-72.81777778a4.55111111 4.55111111 0 0 0-4.55111111 4.55111112v218.45333332a4.55111111 4.55111111 0 0 0 4.55111111 4.55111113z m366.25066667-293.77422222L876.08888889 411.648V197.97333332a4.55111111 4.55111111 0 0 0-4.55111111-4.55111111H753.20888889a4.55111111 4.55111111 0 0 0-4.55111111 4.55111112v86.24355555L544.19911111 79.75822221a45.62488889 45.62488889 0 0 0-64.39822222 0l-25.71377778 25.82755557-431.21777778 431.21777778a4.43733333 4.43733333 0 0 0 0 6.37155554l51.42755556 51.54133333a4.77866667 4.77866667 0 0 0 6.48533333 0l67.12888889-67.12888887v420.864a45.51111111 45.51111111 0 0 0 45.51111111 45.51111109h637.15555556a45.51111111 45.51111111 0 0 0 45.51111111-45.51111109V527.58755556l67.12888889 67.12888887a4.77866667 4.77866667 0 0 0 6.48533333 0l51.42755556-51.54133333a4.43733333 4.43733333 0 0 0 0-6.37155554zM794.16888889 912.04266665H229.83111111V445.66755556l282.16888889-282.16888891 282.16888889 282.16888891z" p-id="2121"></path></svg>