<?xml version="1.0" encoding="UTF-8"?>
<svg width="128" height="128" viewBox="0 0 128 128" fill="none" xmlns="http://www.w3.org/2000/svg">
  <path d="M79.4 58.8L68.5 69.7C67.7 70.5 66.9 71.1 66 71.5V90C66 91.1 65.1 92 64 92C62.9 92 62 91.1 62 90V71.5C61.1 71.1 60.3 70.5 59.5 69.7L48.6 58.8C46.8 57 46.8 54.1 48.6 52.3C50.4 50.5 53.3 50.5 55.1 52.3L62 59.2V40C62 38.9 62.9 38 64 38C65.1 38 66 38.9 66 40V59.2L72.9 52.3C74.7 50.5 77.6 50.5 79.4 52.3C81.2 54.1 81.2 57 79.4 58.8Z" fill="#409EFF"/>
  <path d="M64 10C33.2 10 8 35.2 8 66C8 96.8 33.2 122 64 122C94.8 122 120 96.8 120 66C120 35.2 94.8 10 64 10ZM64 114C37.5 114 16 92.5 16 66C16 39.5 37.5 18 64 18C90.5 18 112 39.5 112 66C112 92.5 90.5 114 64 114Z" fill="#409EFF"/>
  <path d="M96 66C96 83.7 81.7 98 64 98C46.3 98 32 83.7 32 66C32 48.3 46.3 34 64 34" stroke="#409EFF" stroke-width="8" stroke-linecap="round"/>
</svg>