<svg t="1754902038981" class="icon" viewBox="0 0 1024 1024" version="1.1" xmlns="http://www.w3.org/2000/svg" p-id="3748" width="128" height="128"><path d="M917.38831417 478.20828558H288.70524587a33.67944989 33.67944989 0 0 0 0 67.35889977h628.6830683a33.67944989 33.67944989 0 0 0 0-67.35889977zM288.70524587 219.32557881h628.6830683a33.67944989 33.67944989 0 0 0 0-67.35890091H288.70524587a33.67944989 33.67944989 0 0 0 0 67.35890091zM917.38831417 805.12348046H288.70524587a33.67944989 33.67944989 0 0 0 0 67.35890091h628.6830683a33.67944989 33.67944989 0 0 0 0-67.35890091zM132.88165603 150.39497102a35.0266277 35.0266277 0 1 0 34.80209864 35.0266277 35.0266277 35.0266277 0 0 0-34.80209864-35.0266277z m0 323.54724978a35.0266277 35.0266277 0 1 0 34.80209864 34.80209863 34.80209863 34.80209863 0 0 0-34.80209864-34.80209863z m0 328.93596331a34.80209863 34.80209863 0 1 0 34.80209864 34.80209863 34.80209863 34.80209863 0 0 0-34.80209864-34.80209863z" p-id="3749"></path></svg>