<svg t="1754036955484" class="icon" viewBox="0 0 1024 1024" version="1.1" xmlns="http://www.w3.org/2000/svg" p-id="2526" width="128" height="128"><path d="M542.44328689 368.87561035h-57.27138518c-7.91015625 0-14.3371582-6.41155243-14.33715821-14.32170868 0-7.91015625 6.41927721-14.32170868 14.33715821-14.32170868h57.27138518c7.91015625 0 14.3371582 6.41155243 14.3371582 14.32170868 0 7.91015625-6.42700195 14.32170868-14.3371582 14.32170869z" fill="#F6BB42" p-id="2527"></path><path d="M714.33469009 655.32523347c-189.85919953 0-343.75963211-153.90043259-343.7596321-343.75190736 0-42.66386033 7.78656006-83.5278511 22.00012206-121.23241425C262.55198669 239.35452652 170.05568695 364.92825699 170.05568695 512.10814667c0 189.84375001 153.90043259 343.75190735 343.75963211 343.75190734 147.16444016 0 272.73817063-92.49629975 321.74406052-222.52721785-37.69683838 14.21356201-78.56082917 21.99239731-121.22468949 21.9923973z" fill="#FFCE54" p-id="2528"></path><path d="M542.44328689 827.20891189c-189.83602524 0-343.73645783-153.90043259-343.73645782-343.75190735 0-87.60652542 32.78388977-167.55781174 86.71817779-228.25126648-70.76654434 62.95680999-115.36931991 154.7115326-115.36931991 256.9024086 0 189.84375001 153.90043259 343.75190735 343.75963211 343.75190735 102.16770173 0 193.93014908-44.60277558 256.88695907-115.38476946-60.69345474 53.95746231-140.65246583 86.73362732-228.25899124 86.73362734z" fill="#F6BB42" p-id="2529"></path><path d="M685.68354797 354.54617691c0 7.91015625-6.41927721 14.32170868-14.32943344 14.32170868-7.89470673 0-14.31398393-6.41155243-14.31398391-14.32170868 0-7.91015625 6.42700195-14.32170868 14.31398391-14.32170868 7.91015625 0 14.32943345 6.41155243 14.32943344 14.32170868z" fill="#4A89DC" p-id="2530"></path><path d="M614.07500458 497.77871323c0 7.90243148-6.41927721 14.32170868-14.33715821 14.32170868-7.91015625 0-14.31398393-6.42700195-14.31398391-14.32170868 0-7.91015625 6.40382767-14.32170868 14.31398391-14.32170869 7.91788101 0 14.3371582 6.41155243 14.3371582 14.32170869z" fill="#48CFAD" p-id="2531"></path><path d="M857.55177687 325.67101669c0 7.91015625-6.41927721 14.32170868-14.3139839 14.32170868-7.91015625 0-14.3371582-6.41155243-14.3371582-14.32170868 0-7.91015625 6.41927721-14.32170868 14.3371582-14.32170868 7.89470673 0 14.31398393 6.40382767 14.3139839 14.32170868z" fill="#ED5564" p-id="2532"></path><path d="M599.73784638 182.43848037c0 7.91015625-6.40382767 14.32170868-14.31398392 14.32170869-7.91015625 0-14.3371582-6.41155243-14.33715821-14.32170868 0-7.90243148 6.41927721-14.31398393 14.33715821-14.31398392 7.91788101 0 14.31398393 6.41155243 14.31398391 14.31398392z" fill="#AC92EB" p-id="2533"></path><path d="M513.81531906 297.25161743c-7.91015625 0-14.3371582 6.41927721-14.3371582 14.32170869V397.51902771c0 7.90243148 6.41927721 14.31398393 14.3371582 14.31398391 7.89470673 0 14.31398393-6.41155243 14.31398391-14.31398391V311.57332611c0-7.90243148-6.41927721-14.32170868-14.31398391-14.32170868z" fill="#FFCE54" p-id="2534"></path><path d="M757.29981613 454.80586243c-7.91015625 0-14.31398393 6.41155243-14.31398391 14.32170868v85.93025207c0 7.91015625 6.40382767 14.32170868 14.31398391 14.32170867 7.91015625 0 14.31398393-6.41155243 14.31398392-14.32170867V469.13529587c-0.00772476-7.91788101-6.40382767-14.32943345-14.31398392-14.32943344z" fill="#F6BB42" p-id="2535"></path><path d="M785.94323349 526.42213059h-57.29455947c-7.91015625 0-14.31398393-6.41155243-14.31398393-14.31398392 0-7.91015625 6.40382767-14.32170868 14.31398393-14.32170868h57.29455947c7.91015625 0 14.31398393 6.41155243 14.31398391 14.32170868 0 7.89470673-6.3961029 14.31398393-14.31398391 14.31398392z" fill="#FFCE54" p-id="2536"></path></svg>