<svg t="1754311994180" class="icon" viewBox="0 0 1024 1024" version="1.1" xmlns="http://www.w3.org/2000/svg" p-id="2073" width="64" height="64"><path d="M546.63769531 349.15624999h-65.16210937c-9 0-16.3125-7.29492188-16.3125-16.29492187 0-9 7.30371095-16.29492188 16.3125-16.29492187h65.16210937c9 0 16.3125 7.29492188 16.3125 16.29492187 0 9-7.3125 16.29492188-16.3125 16.29492189z" fill="#F6BB42" p-id="2074"></path><path d="M742.21191406 675.07226563c-216.01757813 0-391.12207031-175.10449219-391.12207031-391.11328126 0-48.5419922 8.859375-95.03613281 25.03125-137.93554688C228.18359375 201.79003906 122.94335937 344.66503906 122.94335937 512.12304688c0 216.00000001 175.10449219 391.11328125 391.12207032 391.11328124 167.4404297 0 310.3154297-105.24023438 366.07324219-253.18652343-42.890625 16.171875-89.38476563 25.02246094-137.92675782 25.02246093z" fill="#FFCE54" p-id="2075"></path><path d="M546.63769531 870.63769531c-215.99121094 0-391.09570314-175.10449219-391.09570313-391.11328125 0-99.67675781 37.30078125-190.64355469 98.66601563-259.69921875-80.51660156 71.63085937-131.26464843 176.02734375-131.26464844 292.29785156 0 216.00000001 175.10449219 391.11328125 391.12207032 391.11328125 116.24414064 0 220.64941407-50.74804688 292.28027342-131.28222658-69.05566406 61.39160156-160.03125002 98.68359375-259.7080078 98.68359377z" fill="#F6BB42" p-id="2076"></path><path d="M709.61328125 332.85253906c0 9-7.30371095 16.29492188-16.30371094 16.29492188-8.98242188 0-16.28613283-7.29492188-16.28613281-16.29492188 0-9 7.3125-16.29492188 16.28613281-16.29492188 9 0 16.30371094 7.29492188 16.30371094 16.29492188z" fill="#4A89DC" p-id="2077"></path><path d="M628.13867188 495.81933595c0 8.99121093-7.30371095 16.29492188-16.31250001 16.29492186-9 0-16.28613283-7.3125-16.28613281-16.29492186 0-9 7.28613281-16.29492188 16.28613281-16.29492189 9.00878906 0 16.3125 7.29492188 16.31249999 16.29492189z" fill="#48CFAD" p-id="2078"></path><path d="M905.16113279 299.99902343c0 9-7.30371095 16.29492188-16.28613279 16.29492188-9 0-16.3125-7.29492188-16.3125-16.29492188 0-9 7.30371095-16.29492188 16.3125-16.29492187 8.98242188 0 16.28613283 7.28613281 16.28613279 16.29492187z" fill="#ED5564" p-id="2079"></path><path d="M611.82617188 137.03222655c0 9-7.28613281 16.29492188-16.28613282 16.29492189-9 0-16.3125-7.29492188-16.3125-16.29492187 0-8.99121093 7.30371095-16.28613283 16.3125-16.28613282 9.00878906 0 16.28613283 7.29492188 16.28613281 16.28613282z" fill="#AC92EB" p-id="2080"></path><path d="M514.06542969 267.6640625c-9 0-16.3125 7.30371095-16.3125 16.29492188V381.74609375c0 8.99121093 7.30371095 16.28613283 16.3125 16.2861328 8.98242188 0 16.28613283-7.29492188 16.2861328-16.2861328V283.95898437c0-8.99121093-7.30371095-16.29492188-16.2861328-16.29492187z" fill="#FFCE54" p-id="2081"></path><path d="M791.09667969 446.92578126c-9 0-16.28613283 7.29492188-16.28613281 16.29492187v97.76953125c0 9 7.28613281 16.29492188 16.28613281 16.29492185 9 0 16.28613283-7.29492188 16.28613281-16.29492185V463.22949219c-0.00878906-9.00878906-7.28613281-16.30371094-16.28613281-16.30371093z" fill="#F6BB42" p-id="2082"></path><path d="M823.68652343 528.40917969h-65.18847655c-9 0-16.28613283-7.29492188-16.28613282-16.28613281 0-9 7.28613281-16.29492188 16.28613282-16.29492188h65.18847655c9 0 16.28613283 7.29492188 16.28613282 16.29492188 0 8.98242188-7.27734374 16.28613283-16.28613282 16.28613281z" fill="#FFCE54" p-id="2083"></path></svg>