<svg t="1754036920139" class="icon" viewBox="0 0 1024 1024" version="1.1" xmlns="http://www.w3.org/2000/svg" p-id="2201" width="128" height="128"><path d="M500.03057778 491.008m-265.13635556 0a265.13635555 265.13635555 0 1 0 530.27271111 0 265.13635555 265.13635555 0 1 0-530.27271111 0Z" fill="#F9C626" p-id="2202"></path><path d="M500.07608889 140.34488889H474.33955555c-9.4208 0-17.06666667-7.64586667-17.06666666-17.06666667V29.11573333c0-9.4208 7.64586667-17.06666667 17.06666666-17.06666666h25.73653334c9.4208 0 17.06666667 7.64586667 17.06666666 17.06666666v94.16248889c0 9.4208-7.64586667 17.06666667-17.06666666 17.06666667zM249.59431111 228.42026667l-18.20444444 18.20444444c-6.66737778 6.66737778-17.47626667 6.66737778-24.13226667 0l-66.58275555-66.58275556c-6.66737778-6.66737778-6.66737778-17.47626667 0-24.13226666l18.20444444-18.20444444c6.66737778-6.66737778 17.47626667-6.66737778 24.13226666 0l66.58275556 66.58275555c6.66737778 6.66737778 6.66737778 17.46488889 0 24.13226667zM140.81137778 473.86168889v25.73653333c0 9.4208-7.64586667 17.06666667-17.06666667 17.06666667H29.58222222c-9.4208 0-17.06666667-7.64586667-17.06666667-17.06666667v-25.73653333c0-9.4208 7.64586667-17.06666667 17.06666667-17.06666667h94.16248889c9.4208 0 17.06666667 7.64586667 17.06666667 17.06666667zM237.44284445 724.34346667l18.20444444 18.20444444c6.66737778 6.66737778 6.66737778 17.47626667 0 24.13226667l-66.58275556 66.58275555c-6.66737778 6.66737778-17.47626667 6.66737778-24.13226666 0l-18.20444445-18.20444444c-6.66737778-6.66737778-6.66737778-17.47626667 0-24.13226667l66.58275556-66.58275555c6.656-6.66737778 17.46488889-6.66737778 24.13226667 0zM482.88426667 833.1264h25.73653333c9.4208 0 17.06666667 7.64586667 17.06666667 17.06666667V944.35555555c0 9.4208-7.64586667 17.06666667-17.06666667 17.06666667h-25.73653333c-9.4208 0-17.06666667-7.64586667-17.06666667-17.06666667v-94.16248888c0-9.4208 7.64586667-17.06666667 17.06666667-17.06666667zM733.36604445 736.49493333l18.20444444-18.20444444c6.66737778-6.66737778 17.47626667-6.66737778 24.13226666 0l66.58275556 66.58275556c6.66737778 6.66737778 6.66737778 17.47626667 0 24.13226666l-18.20444444 18.20444444c-6.66737778 6.66737778-17.47626667 6.66737778-24.13226667 0l-66.58275555-66.58275555c-6.66737778-6.656-6.66737778-17.46488889 0-24.13226667zM842.14897778 491.05351111v-25.73653333c0-9.4208 7.64586667-17.06666667 17.06666667-17.06666667h94.16248888c9.4208 0 17.06666667 7.64586667 17.06666667 17.06666667v25.73653333c0 9.4208-7.64586667 17.06666667-17.06666667 17.06666667h-94.16248888c-9.4208 0-17.06666667-7.64586667-17.06666667-17.06666667zM745.51751111 240.57173333l-18.20444444-18.20444444c-6.66737778-6.66737778-6.66737778-17.47626667 0-24.13226667l66.58275555-66.58275555c6.66737778-6.66737778 17.47626667-6.66737778 24.13226667 0l18.20444444 18.20444444c6.66737778 6.66737778 6.66737778 17.47626667 0 24.13226667l-66.58275555 66.58275555c-6.66737778 6.66737778-17.46488889 6.66737778-24.13226667 0z" fill="#F9C626" p-id="2203"></path></svg>