<svg t="1754639867286" class="icon" viewBox="0 0 1024 1024" version="1.1" xmlns="http://www.w3.org/2000/svg" p-id="3630" width="128" height="128"><path d="M887.46666667 102.4L547.49866667 102.4C535.89333333 100.352 523.60533333 103.76533333 514.73066667 112.64l-471.04 471.04C35.49866667 591.872 32.768 602.79466667 33.45066667 613.03466667 32.768 623.95733333 35.49866667 634.88 43.69066667 643.072l334.50666666 334.50666667c8.192 8.192 19.11466667 11.60533333 29.35466667 10.24 10.92266667 1.36533333 22.528-2.048 30.72-10.24l471.04-471.04c4.096-4.096 6.82666667-9.55733333 8.87466667-15.01866667C920.23466667 487.424 921.6 482.64533333 921.6 477.86666667l0-341.33333334C921.6 117.41866667 906.58133333 102.4 887.46666667 102.4zM853.33333333 456.704L408.23466667 901.12 120.14933333 613.03466667 563.2 170.66666667 853.33333333 170.66666667 853.33333333 456.704zM648.53333333 443.73333333c37.54666667 0 68.26666667-30.72 68.26666667-68.26666666 0-37.54666667-30.72-68.26666667-68.26666667-68.26666667C610.98666667 307.2 580.26666667 337.92 580.26666667 375.46666667 580.26666667 413.01333333 610.98666667 443.73333333 648.53333333 443.73333333z" p-id="3631"></path></svg>