<svg t="1754559341429" class="icon" viewBox="0 0 1024 1024" version="1.1" xmlns="http://www.w3.org/2000/svg" p-id="2150" width="128" height="128"><path d="M641.45382756 144.35113127V149.52928355v-5.17815228zM946.96485925 310.05202963l-238.19504236-238.19504238h-5.17815228c-15.53445925-15.53445925-41.42522429-25.89076502-67.31599053-25.89076503s-51.78153127 10.35630577-67.31599053 31.06891853H563.78153127v5.17815348c-20.71261275 25.89076502-31.06891852 56.95968355-20.71261275 93.20675555l20.71261275 72.49414281L418.79324445 356.65540741l-155.3445926-25.89076503h-5.17815349c-20.71261275-5.17815349-46.60337778 0-62.13783704 15.53445926-10.35630577 0-15.53445925 5.17815349-20.71261154 10.35630577l-62.13783703 62.13783704c-15.53445925 15.53445925-20.71261275 25.89076502-20.71261275 41.42522428 0 15.53445925 5.17815349 25.89076502 15.53445925 36.24707202L284.16126461 667.34459259l-222.66058313 222.66058312c-10.35630577 15.53445925-15.53445925 25.89076502-15.53445926 41.42522429 0 15.53445925 5.17815349 25.89076502 15.53445926 36.24707201s20.71261275 10.35630577 36.24707201 10.35630577c15.53445925 0 25.89076502-5.17815349 36.2470708-15.53445926L356.65540741 739.83873539l176.05720534 176.05720536c10.35630577 10.35630577 20.71261275 15.53445925 36.2470708 15.53445925 15.53445925 0 25.89076502-5.17815349 36.247072-15.53445925l62.13783704-62.13783705c5.17815349-5.17815349 10.35630577-10.35630577 10.35630577-20.71261275 10.35630577-20.71261275 15.53445925-41.42522429 15.53445926-67.31598931l-25.89076503-155.34459259 108.74121482-144.98828683 72.49414281 20.71261276h5.17815348c25.89076502 5.17815349 51.78153127 0 72.49414281-10.35630699 20.71261275-15.53445925 36.24707201-31.06891852 46.60337778-62.13783704 10.35630577-41.42522429 5.17815349-72.49414281-25.89076504-103.56306132zM874.47071645 382.54617244l-108.74121481-31.06891852c-20.71261275-5.17815349-41.42522429 0-51.78153127 20.71261275L574.13783703 563.78153127c-10.35630577 10.35630577-10.35630577 25.89076502-10.35630576 36.24707079l25.89076503 176.05720535c-5.17815349 5.17815349-5.17815349 10.35630577-10.35630577 10.35630576l-15.53445926 20.71261275L216.84527408 460.21846873l15.53445925-15.53445926c5.17815349 0 10.35630577-5.17815349 15.53445926-10.35630577l176.05720535 25.89076503c15.53445925 0 25.89076502 0 36.24707079-10.35630576L651.81013333 304.87387614c20.71261275-15.53445925 25.89076502-31.06891852 20.71261275-51.78153006l-31.06891852-103.56306253L874.47071645 382.54617244z" p-id="2151"></path></svg>